<?xml version="1.0" encoding="utf-8"?>
<!-- Generator: Adobe Illustrator 22.1.0, SVG Export Plug-In . SVG Version: 6.00 Build 0)  -->
<svg version="1.1" id="Layer_1" xmlns="http://www.w3.org/2000/svg" xmlns:xlink="http://www.w3.org/1999/xlink" x="0px" y="0px"
	 width="190px" height="100px" viewBox="0 0 190 100" style="enable-background:new 0 0 190 100;" xml:space="preserve">
<style type="text/css">
	.st0{fill:url(#SVGID_1_);}
	.st1{fill:#231F20;}
	.st2{clip-path:url(#SVGID_3_);fill:url(#SVGID_4_);}
	.st3{clip-path:url(#SVGID_6_);fill:url(#SVGID_7_);}
</style>
<g>
	<linearGradient id="SVGID_1_" gradientUnits="userSpaceOnUse" x1="0" y1="33.3335" x2="66.133" y2="33.3335">
		<stop  offset="0" style="stop-color:#FFF100"/>
		<stop  offset="1" style="stop-color:#E0851A"/>
	</linearGradient>
	<ellipse class="st0" cx="33.1" cy="33.3" rx="33.1" ry="33.3"/>
	<g>
		<path class="st1" d="M84.3,14.4c-1.4-0.2-2.5-0.6-3.2-1.4c-0.8-0.8-1.2-1.9-1.2-3.3c0-3,2.2-5.1,5.8-5.1c1.6,0,2.6,0.3,3.8,0.8
			c0.8,0.4,1.3,0.9,1.3,1.6c0,0.3-0.1,0.7-0.4,1c-0.2,0.3-0.5,0.4-1,0.4c-0.4,0-0.8-0.2-1.2-0.4c-0.9-0.5-1.7-0.7-2.6-0.7
			c-1.7,0-2.6,1-2.6,2c0,0.5,0.1,1,0.5,1.3c0.4,0.3,0.8,0.5,1.5,0.6l2,0.3c1.5,0.2,2.5,0.6,3.2,1.3c0.9,0.8,1.3,2.1,1.3,3.6
			c0,3.2-2.7,5.1-6.2,5.1c-1.8,0-2.9-0.2-4.1-0.9c-1.1-0.5-1.7-1-1.7-1.9c0-0.4,0.2-0.8,0.4-1.1c0.3-0.3,0.6-0.4,0.9-0.4
			c0.4,0,0.7,0.1,1.3,0.4c1.2,0.6,1.9,0.9,3.2,0.9c1.9,0,3-0.8,3-2.1c0-0.6-0.2-1.1-0.5-1.4c-0.3-0.3-0.7-0.5-1.5-0.6L84.3,14.4z"/>
	</g>
	<g>
		<path class="st1" d="M87.1,52.5c0.3,0,0.4,0,0.5,0.1c0.1,0.1,0.2,0.3,0.2,0.4c0,0.2-0.1,0.3-0.2,0.4c-0.1,0.1-0.2,0.1-0.5,0.1
			h-2.5V63c0,0.3,0,0.4-0.1,0.6c-0.1,0.1-0.3,0.3-0.5,0.3s-0.4-0.1-0.5-0.3c-0.1-0.1-0.1-0.3-0.1-0.6v-9.4h-2.5
			c-0.3,0-0.4,0-0.5-0.1c-0.1-0.1-0.2-0.3-0.2-0.4c0-0.2,0.1-0.3,0.2-0.4c0.1-0.1,0.2-0.1,0.5-0.1H87.1z"/>
		<path class="st1" d="M96.1,52.5c0.3,0,0.4,0,0.5,0.1c0.1,0.1,0.2,0.3,0.2,0.4c0,0.2-0.1,0.3-0.2,0.4c-0.1,0.1-0.2,0.1-0.5,0.1h-5
			v3.9h4.2c0.3,0,0.4,0,0.5,0.1c0.1,0.1,0.2,0.3,0.2,0.4c0,0.2-0.1,0.3-0.2,0.4c-0.1,0.1-0.2,0.1-0.5,0.1h-4.2v4h5
			c0.3,0,0.4,0,0.5,0.1c0.1,0.1,0.2,0.3,0.2,0.4c0,0.2-0.1,0.3-0.2,0.4c-0.1,0.1-0.2,0.1-0.5,0.1h-5.5c-0.2,0-0.4,0-0.6-0.2
			c-0.2-0.2-0.2-0.4-0.2-0.6v-9.7c0-0.2,0-0.4,0.2-0.6c0.2-0.2,0.4-0.2,0.6-0.2H96.1z"/>
		<path class="st1" d="M101.7,53.1c0.1-0.2,0.1-0.3,0.2-0.4c0.1-0.1,0.2-0.2,0.4-0.2c0.2,0,0.3,0.1,0.4,0.2c0.1,0.1,0.1,0.2,0.2,0.4
			l3.6,9.7c0.1,0.3,0.2,0.6-0.1,0.8c-0.1,0.1-0.3,0.2-0.4,0.2c-0.1,0-0.2,0-0.3-0.1c-0.1-0.1-0.2-0.2-0.3-0.5l-0.7-2h-4.9l-0.7,2
			c-0.1,0.3-0.2,0.4-0.3,0.5c-0.1,0.1-0.2,0.1-0.3,0.1c-0.2,0-0.3-0.1-0.4-0.2c-0.2-0.2-0.2-0.5,0-0.8L101.7,53.1z M100.3,60.1h4.2
			l-2.1-5.8L100.3,60.1z"/>
		<path class="st1" d="M109.5,53.5c0.7-0.7,1.6-1.1,2.8-1.1c1.4,0,2.3,0.6,3,1.3c0.5,0.6,0.7,1.3,0.7,1.6c0,0.2,0,0.3-0.2,0.4
			c-0.1,0.1-0.2,0.2-0.4,0.2c-0.2,0-0.3,0-0.4-0.1c-0.1-0.1-0.2-0.3-0.3-0.5c-0.4-1.2-1.3-1.9-2.5-1.9c-0.7,0-1.4,0.3-1.9,0.8
			c-0.7,0.7-0.8,1.6-0.8,3.8c0,2.3,0.1,3.1,0.8,3.8c0.5,0.5,1.2,0.8,1.9,0.8c1.2,0,2.1-0.7,2.5-1.9c0.1-0.2,0.2-0.4,0.3-0.5
			c0.1-0.1,0.2-0.1,0.4-0.1c0.1,0,0.3,0,0.4,0.2c0.1,0.1,0.2,0.2,0.2,0.4c0,0.4-0.2,1.1-0.7,1.6c-0.6,0.8-1.5,1.3-3,1.3
			c-1.1,0-2.1-0.4-2.8-1.1c-1.1-1.1-1.1-2-1.1-4.6C108.4,55.5,108.4,54.6,109.5,53.5z"/>
		<path class="st1" d="M126.3,63.5c-0.1,0.1-0.3,0.3-0.5,0.3s-0.4-0.1-0.5-0.3c-0.1-0.1-0.1-0.3-0.1-0.6v-4.4h-5.2V63
			c0,0.3,0,0.4-0.1,0.6c-0.1,0.1-0.3,0.3-0.5,0.3c-0.2,0-0.4-0.1-0.5-0.3c-0.1-0.1-0.1-0.3-0.1-0.6v-9.7c0-0.3,0-0.4,0.1-0.6
			c0.1-0.1,0.3-0.3,0.5-0.3c0.2,0,0.4,0.1,0.5,0.3c0.1,0.1,0.1,0.3,0.1,0.6v4.3h5.2v-4.3c0-0.3,0-0.4,0.1-0.6
			c0.1-0.1,0.3-0.3,0.5-0.3s0.4,0.1,0.5,0.3c0.1,0.1,0.1,0.3,0.1,0.6V63C126.4,63.3,126.4,63.4,126.3,63.5z"/>
		<path class="st1" d="M130.8,63c0,0.3,0,0.4-0.1,0.6c-0.1,0.1-0.3,0.3-0.5,0.3c-0.2,0-0.4-0.1-0.5-0.3c-0.1-0.1-0.1-0.3-0.1-0.6
			v-9.7c0-0.3,0-0.4,0.1-0.6c0.1-0.1,0.3-0.3,0.5-0.3c0.2,0,0.4,0.1,0.5,0.3c0.1,0.1,0.1,0.3,0.1,0.6V63z"/>
		<path class="st1" d="M142.2,63c0,0.3-0.1,0.5-0.2,0.6c-0.1,0.1-0.3,0.2-0.5,0.2c-0.3,0-0.5-0.2-0.7-0.5l-5.7-8.5V63
			c0,0.3,0,0.4-0.1,0.6c-0.1,0.1-0.3,0.3-0.5,0.3c-0.2,0-0.4-0.1-0.5-0.3c-0.1-0.1-0.1-0.3-0.1-0.6v-9.7c0-0.3,0.1-0.5,0.2-0.6
			c0.1-0.1,0.3-0.2,0.5-0.2c0.3,0,0.5,0.2,0.7,0.5l5.7,8.5v-8.2c0-0.3,0-0.4,0.1-0.6c0.1-0.1,0.3-0.3,0.5-0.3c0.2,0,0.4,0.1,0.5,0.3
			c0.1,0.1,0.1,0.3,0.1,0.6V63z"/>
		<path class="st1" d="M147,61.9c0.5,0.5,1.2,0.8,1.9,0.8c0.7,0,1.4-0.3,1.9-0.8c0.6-0.6,0.8-1.4,0.8-3h-2.1c-0.3,0-0.4,0-0.5-0.1
			c-0.1-0.1-0.2-0.3-0.2-0.4s0.1-0.3,0.2-0.4c0.1-0.1,0.2-0.1,0.5-0.1h2.5c0.2,0,0.4,0,0.6,0.2c0.2,0.2,0.2,0.4,0.2,0.6v0.2
			c0,2-0.2,2.9-1.1,3.9c-0.7,0.7-1.6,1.1-2.8,1.1c-1.2,0-2.1-0.4-2.8-1.1c-1.1-1.1-1.1-2-1.1-4.6c0-2.6,0.1-3.5,1.1-4.6
			c0.7-0.7,1.6-1.1,2.8-1.1c1.4,0,2.3,0.6,3,1.3c0.5,0.6,0.7,1.3,0.7,1.6c0,0.2,0,0.3-0.2,0.4c-0.1,0.1-0.2,0.2-0.4,0.2
			c-0.2,0-0.3,0-0.4-0.1c-0.1-0.1-0.2-0.3-0.3-0.5c-0.4-1.2-1.3-1.9-2.5-1.9c-0.7,0-1.4,0.3-1.9,0.8c-0.7,0.7-0.8,1.6-0.8,3.8
			C146.2,60.4,146.3,61.2,147,61.9z"/>
		<path class="st1" d="M87.1,70.2c0.3,0,0.4,0,0.5,0.1c0.1,0.1,0.2,0.3,0.2,0.4c0,0.2-0.1,0.3-0.2,0.4c-0.1,0.1-0.2,0.1-0.5,0.1
			h-2.5v9.4c0,0.3,0,0.4-0.1,0.6c-0.1,0.1-0.3,0.3-0.5,0.3s-0.4-0.1-0.5-0.3c-0.1-0.1-0.1-0.3-0.1-0.6v-9.4h-2.5
			c-0.3,0-0.4,0-0.5-0.1c-0.1-0.1-0.2-0.3-0.2-0.4c0-0.2,0.1-0.3,0.2-0.4c0.1-0.1,0.2-0.1,0.5-0.1H87.1z"/>
		<path class="st1" d="M97.4,81.2c-0.1,0.1-0.3,0.3-0.5,0.3s-0.4-0.1-0.5-0.3c-0.1-0.1-0.1-0.3-0.1-0.6v-4.4h-5.2v4.4
			c0,0.3,0,0.4-0.1,0.6c-0.1,0.1-0.3,0.3-0.5,0.3c-0.2,0-0.4-0.1-0.5-0.3c-0.1-0.1-0.1-0.3-0.1-0.6V71c0-0.3,0-0.4,0.1-0.6
			c0.1-0.1,0.3-0.3,0.5-0.3c0.2,0,0.4,0.1,0.5,0.3c0.1,0.1,0.1,0.3,0.1,0.6v4.3h5.2V71c0-0.3,0-0.4,0.1-0.6c0.1-0.1,0.3-0.3,0.5-0.3
			s0.4,0.1,0.5,0.3c0.1,0.1,0.1,0.3,0.1,0.6v9.7C97.5,81,97.5,81.1,97.4,81.2z"/>
		<path class="st1" d="M106.6,70.2c0.3,0,0.4,0,0.5,0.1c0.1,0.1,0.2,0.3,0.2,0.4c0,0.2-0.1,0.3-0.2,0.4c-0.1,0.1-0.2,0.1-0.5,0.1h-5
			v3.9h4.2c0.3,0,0.4,0,0.5,0.1c0.1,0.1,0.2,0.3,0.2,0.4c0,0.2-0.1,0.3-0.2,0.4c-0.1,0.1-0.2,0.1-0.5,0.1h-4.2v4h5
			c0.3,0,0.4,0,0.5,0.1c0.1,0.1,0.2,0.3,0.2,0.4c0,0.2-0.1,0.3-0.2,0.4c-0.1,0.1-0.2,0.1-0.5,0.1h-5.5c-0.2,0-0.4,0-0.6-0.2
			c-0.2-0.2-0.2-0.4-0.2-0.6V71c0-0.2,0-0.4,0.2-0.6c0.2-0.2,0.4-0.2,0.6-0.2H106.6z"/>
		<path class="st1" d="M116.5,80.8c-0.1,0.2-0.1,0.4-0.3,0.5c-0.1,0.1-0.3,0.2-0.4,0.2c-0.2,0-0.3,0-0.4-0.2
			c-0.1-0.1-0.2-0.3-0.3-0.5l-2.4-9.7c-0.1-0.3-0.1-0.4,0-0.6c0.1-0.2,0.3-0.4,0.5-0.4c0.1,0,0.3,0,0.4,0.1c0.1,0.1,0.2,0.2,0.2,0.5
			l2.1,8.5l2.3-8.5c0.1-0.2,0.1-0.3,0.2-0.4c0.1-0.1,0.2-0.2,0.4-0.2c0.2,0,0.3,0,0.4,0.2c0.1,0.1,0.2,0.2,0.2,0.4l2.3,8.5l2.1-8.5
			c0.1-0.3,0.1-0.4,0.2-0.5c0.1-0.1,0.2-0.1,0.4-0.1c0.2,0,0.5,0.1,0.5,0.4c0,0.1,0,0.3,0,0.6l-2.4,9.7c-0.1,0.2-0.1,0.4-0.3,0.5
			c-0.1,0.1-0.3,0.2-0.4,0.2s-0.3,0-0.4-0.2c-0.1-0.1-0.2-0.3-0.3-0.5l-2.3-8.4L116.5,80.8z"/>
		<path class="st1" d="M133.4,71.2c1.1,1.1,1.1,2,1.1,4.6c0,2.6-0.1,3.5-1.1,4.6c-0.7,0.7-1.6,1.1-2.8,1.1c-1.2,0-2.1-0.4-2.8-1.1
			c-1.1-1.1-1.1-2-1.1-4.6c0-2.6,0.1-3.5,1.1-4.6c0.7-0.7,1.6-1.1,2.8-1.1C131.7,70.1,132.7,70.5,133.4,71.2z M132.5,79.6
			c0.7-0.7,0.8-1.5,0.8-3.8c0-2.3-0.1-3.1-0.8-3.8c-0.5-0.5-1.2-0.8-1.9-0.8c-0.8,0-1.4,0.3-1.9,0.8c-0.7,0.7-0.8,1.5-0.8,3.8
			c0,2.3,0.1,3.1,0.8,3.8c0.5,0.5,1.2,0.8,1.9,0.8C131.3,80.4,132,80.2,132.5,79.6z"/>
		<path class="st1" d="M137.4,70.4c0.2-0.2,0.4-0.2,0.6-0.2h3.5c1.9,0,3.3,1.2,3.3,3.1c0,1.6-1,2.7-2.4,3l2.3,4
			c0.1,0.3,0.2,0.4,0.2,0.5c0,0.2-0.1,0.4-0.3,0.5c-0.1,0.1-0.2,0.1-0.3,0.1c-0.3,0-0.5-0.2-0.6-0.5l-2.6-4.5h-2.6v4.2
			c0,0.3,0,0.4-0.1,0.6c-0.1,0.1-0.3,0.3-0.5,0.3c-0.2,0-0.4-0.1-0.5-0.3c-0.1-0.1-0.1-0.3-0.1-0.6V71
			C137.3,70.8,137.3,70.6,137.4,70.4z M138.5,71.3v4.1h3c1.3,0,2.2-0.7,2.2-2c0-1.4-0.9-2.1-2.2-2.1H138.5z"/>
		<path class="st1" d="M147.7,81.3c-0.2-0.2-0.2-0.4-0.2-0.6V71c0-0.3,0-0.4,0.1-0.6c0.1-0.1,0.3-0.3,0.5-0.3c0.2,0,0.4,0.1,0.5,0.3
			c0.1,0.1,0.1,0.3,0.1,0.6v9.4h5c0.3,0,0.4,0,0.5,0.1c0.1,0.1,0.2,0.3,0.2,0.4c0,0.2-0.1,0.3-0.2,0.4c-0.1,0.1-0.2,0.1-0.5,0.1
			h-5.5C148.1,81.4,147.9,81.4,147.7,81.3z"/>
		<path class="st1" d="M156.2,81.3c-0.2-0.2-0.2-0.4-0.2-0.6V71c0-0.2,0-0.4,0.2-0.6s0.4-0.2,0.6-0.2h3.1c1.3,0,2.2,0.4,2.9,1.2
			c1,1.1,1,2.7,1,4.4c0,1.7,0,3.3-1,4.4c-0.8,0.8-1.7,1.2-2.9,1.2h-3.1C156.6,81.4,156.3,81.4,156.2,81.3z M157.2,71.3v9.1h2.4
			c0.9,0,1.6-0.2,2.2-0.8c0.7-0.8,0.7-2.2,0.7-3.7c0-1.5,0-2.9-0.7-3.7c-0.6-0.6-1.3-0.8-2.2-0.8H157.2z"/>
		<path class="st1" d="M87.1,87.9c0.3,0,0.4,0,0.5,0.1c0.1,0.1,0.2,0.3,0.2,0.4c0,0.2-0.1,0.3-0.2,0.4C87.5,89,87.4,89,87.1,89h-2.5
			v9.4c0,0.3,0,0.4-0.1,0.6c-0.1,0.1-0.3,0.3-0.5,0.3s-0.4-0.1-0.5-0.3c-0.1-0.1-0.1-0.3-0.1-0.6V89h-2.5c-0.3,0-0.4,0-0.5-0.1
			c-0.1-0.1-0.2-0.3-0.2-0.4c0-0.2,0.1-0.3,0.2-0.4c0.1-0.1,0.2-0.1,0.5-0.1H87.1z"/>
		<path class="st1" d="M96,88.9c1.1,1.1,1.1,2,1.1,4.6c0,2.6-0.1,3.5-1.1,4.6c-0.7,0.7-1.6,1.1-2.8,1.1c-1.2,0-2.1-0.4-2.8-1.1
			c-1.1-1.1-1.1-2-1.1-4.6c0-2.6,0.1-3.5,1.1-4.6c0.7-0.7,1.6-1.1,2.8-1.1C94.4,87.8,95.4,88.2,96,88.9z M95.2,97.3
			c0.7-0.7,0.8-1.5,0.8-3.8c0-2.3-0.1-3.1-0.8-3.8c-0.5-0.5-1.2-0.8-1.9-0.8c-0.8,0-1.4,0.3-1.9,0.8c-0.7,0.7-0.8,1.5-0.8,3.8
			c0,2.3,0.1,3.1,0.8,3.8c0.5,0.5,1.2,0.8,1.9,0.8C94,98.1,94.7,97.9,95.2,97.3z"/>
		<path class="st1" d="M105.6,93.9c-0.9-0.1-1.5-0.3-2-0.9c-0.6-0.5-0.9-1.2-0.9-2.1c0-1.9,1.4-3.2,3.6-3.2c1.1,0,1.8,0.2,2.7,0.8
			c0.3,0.2,0.5,0.4,0.5,0.6c0,0.1,0,0.3-0.1,0.4c-0.1,0.1-0.2,0.2-0.4,0.2c-0.2,0-0.4-0.1-0.5-0.2c-0.7-0.5-1.3-0.7-2.2-0.7
			c-1.5,0-2.4,0.8-2.4,2.1c0,0.6,0.2,1,0.5,1.3c0.4,0.3,0.8,0.5,1.5,0.6l1.2,0.2c1,0.2,1.6,0.4,2,0.8c0.6,0.5,0.9,1.3,0.9,2.2
			c0,2-1.5,3.2-3.8,3.2c-1.4,0-2.2-0.3-3.2-0.9c-0.3-0.2-0.5-0.4-0.5-0.7c0-0.1,0-0.3,0.2-0.4c0.1-0.1,0.2-0.1,0.4-0.1
			c0.1,0,0.3,0.1,0.6,0.3c0.8,0.6,1.5,0.9,2.6,0.9c1.6,0,2.6-0.8,2.6-2.1c0-0.6-0.2-1.1-0.5-1.4c-0.4-0.3-0.6-0.4-1.5-0.5
			L105.6,93.9z"/>
		<path class="st1" d="M118.6,87.9c0.3,0,0.4,0,0.5,0.1c0.1,0.1,0.2,0.3,0.2,0.4c0,0.2-0.1,0.3-0.2,0.4c-0.1,0.1-0.2,0.1-0.5,0.1h-5
			v3.9h4.2c0.3,0,0.4,0,0.5,0.1c0.1,0.1,0.2,0.3,0.2,0.4c0,0.2-0.1,0.3-0.2,0.4c-0.1,0.1-0.2,0.1-0.5,0.1h-4.2v4h5
			c0.3,0,0.4,0,0.5,0.1c0.1,0.1,0.2,0.3,0.2,0.4c0,0.2-0.1,0.3-0.2,0.4c-0.1,0.1-0.2,0.1-0.5,0.1h-5.5c-0.2,0-0.4,0-0.6-0.2
			c-0.2-0.2-0.2-0.4-0.2-0.6v-9.7c0-0.2,0-0.4,0.2-0.6s0.4-0.2,0.6-0.2H118.6z"/>
		<path class="st1" d="M128,87.9c0.3,0,0.4,0,0.5,0.1c0.1,0.1,0.2,0.3,0.2,0.4c0,0.2-0.1,0.3-0.2,0.4c-0.1,0.1-0.2,0.1-0.5,0.1h-5
			v3.9h4.2c0.3,0,0.4,0,0.5,0.1c0.1,0.1,0.2,0.3,0.2,0.4c0,0.2-0.1,0.3-0.2,0.4c-0.1,0.1-0.2,0.1-0.5,0.1H123v4h5
			c0.3,0,0.4,0,0.5,0.1c0.1,0.1,0.2,0.3,0.2,0.4c0,0.2-0.1,0.3-0.2,0.4c-0.1,0.1-0.2,0.1-0.5,0.1h-5.5c-0.2,0-0.4,0-0.6-0.2
			c-0.2-0.2-0.2-0.4-0.2-0.6v-9.7c0-0.2,0-0.4,0.2-0.6c0.2-0.2,0.4-0.2,0.6-0.2H128z"/>
	</g>
	<g>
		<path class="st1" d="M97.3,19.4c0,0.8,0,1-0.2,1.4c-0.2,0.5-0.8,0.8-1.4,0.8c-0.6,0-1.2-0.3-1.4-0.8c-0.2-0.4-0.2-0.7-0.2-1.4V6.9
			c0-0.8,0-1,0.2-1.4C94.5,5,95,4.7,95.7,4.7c0.6,0,1.2,0.3,1.4,0.8c0.2,0.4,0.2,0.7,0.2,1.4V19.4z"/>
	</g>
	<g>
		<path class="st1" d="M104.4,17.9c0.5,0.5,1.2,0.9,2.1,0.9c0.9,0,1.6-0.3,2.1-0.8c0.6-0.6,0.7-1.3,0.7-2.5h-1.2
			c-0.7,0-0.9,0-1.3-0.2c-0.4-0.2-0.7-0.7-0.7-1.3c0-0.6,0.3-1.1,0.7-1.3c0.3-0.2,0.6-0.2,1.3-0.2h2.3c0.5,0,1.1,0,1.5,0.5
			c0.5,0.5,0.5,1.1,0.5,1.5v0.2c0,2.4-0.3,4-1.5,5.2c-1.3,1.3-2.6,1.8-4.4,1.8c-1.9,0-3.3-0.6-4.5-1.8c-1.6-1.7-1.7-3.6-1.7-6.8
			c0-3.2,0.1-5.1,1.7-6.8c1.1-1.1,2.6-1.8,4.4-1.8c2,0,3.2,0.5,4.3,1.5c1.1,1,1.4,2.2,1.4,2.9c0,0.6-0.1,0.9-0.4,1.2
			c-0.3,0.3-0.7,0.4-1.1,0.4c-0.4,0-0.7-0.1-0.9-0.3c-0.3-0.3-0.6-0.7-0.8-1.2c-0.5-1.2-1.3-1.7-2.5-1.7c-0.9,0-1.5,0.4-2,0.9
			c-0.7,0.8-0.8,1.7-0.8,4.7C103.6,16.4,103.8,17.2,104.4,17.9z"/>
	</g>
	<g>
		<path class="st1" d="M118.7,19.4c0,0.8,0,1-0.2,1.4c-0.2,0.5-0.8,0.8-1.4,0.8c-0.6,0-1.2-0.3-1.4-0.8c-0.2-0.4-0.2-0.7-0.2-1.4
			V6.9c0-0.8,0-1,0.2-1.4c0.2-0.5,0.8-0.8,1.4-0.8c0.6,0,1.2,0.3,1.4,0.8c0.2,0.4,0.2,0.7,0.2,1.4v4.7h5.6V6.9c0-0.8,0-1,0.2-1.4
			c0.2-0.5,0.8-0.8,1.4-0.8c0.6,0,1.2,0.3,1.4,0.8c0.2,0.4,0.2,0.7,0.2,1.4v12.5c0,0.8,0,1-0.2,1.4c-0.2,0.5-0.8,0.8-1.4,0.8
			c-0.6,0-1.2-0.3-1.4-0.8c-0.2-0.4-0.2-0.7-0.2-1.4v-4.9h-5.6V19.4z"/>
	</g>
	<g>
		<path class="st1" d="M137.5,7.7v11.8c0,0.8,0,1-0.2,1.4c-0.2,0.5-0.8,0.8-1.4,0.8c-0.6,0-1.2-0.3-1.4-0.8
			c-0.2-0.4-0.2-0.7-0.2-1.4V7.7h-2.5c-0.7,0-1,0-1.3-0.2c-0.4-0.2-0.7-0.7-0.7-1.3c0-0.6,0.3-1.1,0.7-1.3c0.3-0.2,0.6-0.2,1.3-0.2
			h8.2c0.7,0,1,0,1.3,0.2c0.4,0.2,0.7,0.7,0.7,1.3c0,0.6-0.3,1.1-0.7,1.3c-0.3,0.2-0.6,0.2-1.3,0.2H137.5z"/>
	</g>
	<g>
		<g>
			<path class="st1" d="M88.7,35.4c0.7,0,1,0,1.3,0.2c0.4,0.2,0.7,0.7,0.7,1.3c0,0.6-0.3,1.1-0.7,1.3c-0.3,0.2-0.6,0.2-1.3,0.2H84
				V43c0,0.8,0,1-0.2,1.4c-0.2,0.5-0.8,0.8-1.4,0.8s-1.2-0.3-1.4-0.8c-0.2-0.4-0.2-0.7-0.2-1.4V30.3c0-0.5,0-1.1,0.5-1.5
				c0.5-0.5,1.1-0.5,1.5-0.5h7.1c0.7,0,1,0,1.3,0.2c0.4,0.2,0.7,0.7,0.7,1.3c0,0.6-0.3,1.1-0.7,1.3c-0.3,0.2-0.6,0.2-1.3,0.2H84v4.1
				H88.7z"/>
		</g>
		<g>
			<path class="st1" d="M94.4,43.5c-1.6-1.7-1.7-3.6-1.7-6.8c0-3.2,0.1-5.1,1.7-6.8c1.1-1.1,2.5-1.8,4.5-1.8c1.9,0,3.3,0.6,4.5,1.8
				c1.7,1.7,1.7,3.6,1.7,6.8c0,3.2-0.1,5.1-1.7,6.8c-1.1,1.1-2.5,1.8-4.5,1.8C96.9,45.2,95.5,44.6,94.4,43.5z M96.7,32
				c-0.6,0.7-0.8,1.5-0.8,4.7c0,3.2,0.2,4,0.8,4.7c0.5,0.5,1.2,0.9,2.1,0.9c0.9,0,1.6-0.4,2.1-0.9c0.6-0.7,0.8-1.5,0.8-4.7
				c0-3.2-0.2-4-0.8-4.7c-0.5-0.5-1.2-0.9-2.1-0.9C97.9,31.1,97.2,31.4,96.7,32z"/>
		</g>
		<g>
			<path class="st1" d="M110.5,43c0,0.8,0,1-0.2,1.4c-0.2,0.5-0.8,0.8-1.4,0.8c-0.6,0-1.2-0.3-1.4-0.8c-0.2-0.4-0.2-0.7-0.2-1.4
				V30.3c0-0.5,0-1.1,0.5-1.5c0.5-0.5,1.1-0.5,1.5-0.5h4.6c3.4,0,5.4,2.3,5.4,5.1c0,2-1.1,3.7-3,4.4l2.5,4.4
				c0.4,0.7,0.5,0.9,0.5,1.3c0,0.5-0.3,1.1-0.8,1.4c-0.3,0.2-0.6,0.3-0.9,0.3c-0.9,0-1.2-0.6-1.6-1.3l-3.1-5.4h-2.3V43z M113.6,35.7
				c1.4,0,2.3-0.9,2.3-2.2c0-1.3-0.9-2.2-2.3-2.2h-3.1v4.4H113.6z"/>
		</g>
		<g>
			<path class="st1" d="M138.4,42.6c0.3,0.8,0.5,1.5-0.1,2.1c-0.3,0.3-0.7,0.5-1.2,0.5c-0.4,0-0.7-0.1-0.9-0.3
				c-0.3-0.2-0.4-0.5-0.7-1.2l-0.5-1.5h-6.5l-0.5,1.5c-0.3,0.8-0.4,1-0.7,1.2c-0.2,0.2-0.5,0.3-0.9,0.3c-0.4,0-0.9-0.2-1.2-0.5
				c-0.6-0.6-0.4-1.3-0.1-2.1l4.8-12.9c0.2-0.6,0.4-0.9,0.7-1.1c0.3-0.3,0.7-0.4,1.2-0.4c0.5,0,0.9,0.1,1.2,0.4
				c0.3,0.2,0.4,0.5,0.7,1.1L138.4,42.6z M129.5,39.4h4.5l-2.2-6.1L129.5,39.4z"/>
			<path class="st1" d="M141.4,44.6c-0.5-0.5-0.5-1.1-0.5-1.5V30.4c0-0.8,0-1,0.2-1.4c0.2-0.5,0.8-0.8,1.4-0.8
				c0.6,0,1.2,0.3,1.4,0.8c0.2,0.4,0.2,0.7,0.2,1.4v11.7h5.7c0.7,0,1,0,1.3,0.2c0.4,0.2,0.7,0.7,0.7,1.3c0,0.6-0.3,1.1-0.7,1.3
				c-0.3,0.2-0.6,0.2-1.3,0.2h-7C142.4,45.1,141.8,45.1,141.4,44.6z"/>
			<path class="st1" d="M154.5,44.6c-0.5-0.5-0.5-1.1-0.5-1.5V30.4c0-0.8,0-1,0.2-1.4c0.2-0.5,0.8-0.8,1.4-0.8
				c0.6,0,1.2,0.3,1.4,0.8c0.2,0.4,0.2,0.7,0.2,1.4v11.7h5.7c0.7,0,1,0,1.3,0.2c0.4,0.2,0.7,0.7,0.7,1.3c0,0.6-0.3,1.1-0.7,1.3
				c-0.3,0.2-0.6,0.2-1.3,0.2h-7C155.6,45.1,155,45.1,154.5,44.6z"/>
		</g>
	</g>
	<g>
		<defs>
			<path id="SVGID_2_" d="M0,33.3c0,18.4,14.8,33.3,33.1,33.3V33.3C45.3,33.3,56,40,61.7,50c2.8-4.9,4.4-10.6,4.4-16.7
				C66.1,14.9,51.3,0,33.1,0C14.8,0,0,14.9,0,33.3"/>
		</defs>
		<clipPath id="SVGID_3_">
			<use xlink:href="#SVGID_2_"  style="overflow:visible;"/>
		</clipPath>
		
			<linearGradient id="SVGID_4_" gradientUnits="userSpaceOnUse" x1="-497.0994" y1="470.7277" x2="-496.581" y2="470.7277" gradientTransform="matrix(127.5591 0 0 -127.5591 63409.5547 60078.9375)">
			<stop  offset="0" style="stop-color:#FFF100"/>
			<stop  offset="1" style="stop-color:#E0851A"/>
		</linearGradient>
		<rect class="st2" width="66.1" height="66.7"/>
	</g>
	<g>
		<defs>
			<path id="SVGID_5_" d="M33.1,66.7C20.8,66.7,10.1,60,4.4,50C1.6,54.9,0,60.6,0,66.7C0,85.1,14.8,100,33.1,100
				c18.3,0,33.1-14.9,33.1-33.3c0-18.4-14.8-33.3-33.1-33.3V66.7z"/>
		</defs>
		<clipPath id="SVGID_6_">
			<use xlink:href="#SVGID_5_"  style="overflow:visible;"/>
		</clipPath>
		
			<linearGradient id="SVGID_7_" gradientUnits="userSpaceOnUse" x1="-500.422" y1="471.0323" x2="-499.9035" y2="471.0323" gradientTransform="matrix(-127.5591 0 0 127.5591 -63767.2461 -60017.7891)">
			<stop  offset="0" style="stop-color:#FFF100"/>
			<stop  offset="1" style="stop-color:#E0851A"/>
		</linearGradient>
		<rect y="33.3" class="st3" width="66.1" height="66.7"/>
	</g>
</g>
</svg>
