<svg xmlns="http://www.w3.org/2000/svg" width="36" height="18.985" viewBox="0 0 36 18.985">
  <g id="eye_1_" data-name="eye (1)" transform="translate(0 -121)">
    <g id="Group_3" data-name="Group 3" transform="translate(-0.001 121)">
      <g id="Group_2" data-name="Group 2" transform="translate(0 0)">
        <path id="Path_4" data-name="Path 4" d="M35.731,129.789C35.41,129.43,27.68,121,18,121S.59,129.43.268,129.789a1.055,1.055,0,0,0,0,1.407c.321.358,8.051,8.789,17.731,8.789s17.41-8.43,17.731-8.789A1.055,1.055,0,0,0,35.731,129.789ZM18,137.875a7.383,7.383,0,1,1,7.383-7.383A7.392,7.392,0,0,1,18,137.875Z" transform="translate(0.001 -121)" fill="#fff"/>
      </g>
    </g>
    <g id="Group_5" data-name="Group 5" transform="translate(12.726 125.219)">
      <g id="Group_4" data-name="Group 4" transform="translate(0 0)">
        <path id="Path_5" data-name="Path 5" d="M187.328,184.164a3.154,3.154,0,0,1,1.328-2.569,5.205,5.205,0,0,0-2.383-.6,5.273,5.273,0,1,0,5.184,6.162A3.146,3.146,0,0,1,187.328,184.164Z" transform="translate(-181 -181)" fill="#fff"/>
      </g>
    </g>
  </g>
</svg>
