<svg xmlns="http://www.w3.org/2000/svg" width="207.411" height="36.709" viewBox="0 0 207.411 36.709">
  <path id="Path_20" data-name="Path 20" d="M10.759,34.01a13.89,13.89,0,0,1-5.4-1.094,14.36,14.36,0,0,1-4.769-3.3l3.32-4.087a10.832,10.832,0,0,0,1.66,1.554,10.316,10.316,0,0,0,1.785,1.094,9.1,9.1,0,0,0,1.775.633,7.411,7.411,0,0,0,1.727.211,5.708,5.708,0,0,0,2.216-.384A2.961,2.961,0,0,0,14.424,27.6a2.674,2.674,0,0,0,.441-1.535,2.926,2.926,0,0,0-.192-1.094,2.73,2.73,0,0,0-.528-.844,3.877,3.877,0,0,0-.979-.72,12.132,12.132,0,0,0-1.334-.633q-.691-.278-1.823-.662-1.017-.365-1.8-.672T6.5,20.664a13.457,13.457,0,0,1-1.593-.94,10.042,10.042,0,0,1-1.334-1.132A6.4,6.4,0,0,1,2.5,17.19a7.428,7.428,0,0,1-.672-1.708,7.959,7.959,0,0,1-.259-2.063,7.219,7.219,0,0,1,1.19-4.03A8.263,8.263,0,0,1,6,6.521a10.189,10.189,0,0,1,4.529-1.084,14.236,14.236,0,0,1,9.4,3.512l-3.185,4.164q-3.358-2.744-6.083-2.744a3.724,3.724,0,0,0-2.408.748,2.543,2.543,0,0,0-.95,2.053,2.246,2.246,0,0,0,.192.94,2.66,2.66,0,0,0,.518.758,4.179,4.179,0,0,0,.969.691q.643.355,1.286.633t1.737.7q.192.077.556.211,1.286.5,1.909.758t1.66.758a9.6,9.6,0,0,1,1.545.883q.509.384,1.19,1.017a4.336,4.336,0,0,1,1,1.3,8.759,8.759,0,0,1,.547,1.583,8.182,8.182,0,0,1,.23,2.005,8.533,8.533,0,0,1-.595,3.233,7.16,7.16,0,0,1-1.574,2.437,9.472,9.472,0,0,1-2.274,1.65,10.508,10.508,0,0,1-2.658.979A13.007,13.007,0,0,1,10.759,34.01ZM34.824,14.494h5.335L29.816,41.455H24.558l3.416-8.961-7.676-18h5.373l4.7,11.878h.058ZM54.878,4.746h5.143V33.683H55.128V31.362h-.115a7.056,7.056,0,0,1-5.872,2.648,10.234,10.234,0,0,1-2.188-.23,8.233,8.233,0,0,1-1.967-.691,9.617,9.617,0,0,1-1.7-1.094,7.694,7.694,0,0,1-1.4-1.478,9.845,9.845,0,0,1-1.046-1.823,10.2,10.2,0,0,1-.662-2.14,12.352,12.352,0,0,1-.23-2.408,11.436,11.436,0,0,1,.691-4.011,9.5,9.5,0,0,1,1.89-3.166,8.759,8.759,0,0,1,6.457-2.8,7.294,7.294,0,0,1,5.8,2.495h.1ZM50.081,29.4a5.145,5.145,0,0,0,2.552-.643,4.725,4.725,0,0,0,1.833-1.852,5.492,5.492,0,0,0,.681-2.744,5.414,5.414,0,0,0-1.43-3.838A4.73,4.73,0,0,0,50.1,18.793a4.667,4.667,0,0,0-3.521,1.478,5.407,5.407,0,0,0-1.41,3.9,5.294,5.294,0,0,0,1.372,3.78A4.642,4.642,0,0,0,50.081,29.4ZM75.009,14.168a8.239,8.239,0,0,1,2.83.451,5.74,5.74,0,0,1,3.636,3.924,12.637,12.637,0,0,1,.5,3.761V33.7H76.832V23.59a5.874,5.874,0,0,0-.9-3.723,3.429,3.429,0,0,0-2.782-1.075,3.988,3.988,0,0,0-3.176,1.362,5.743,5.743,0,0,0-1.18,3.876v9.652H63.649V14.494h5.143V16.97h.058a7.871,7.871,0,0,1,2.773-2.082A8.174,8.174,0,0,1,75.009,14.168Zm28.21,9.748a8.158,8.158,0,0,1-.134,1.842H89.633a4.826,4.826,0,0,0,1.756,2.686,5.147,5.147,0,0,0,3.137,1,5.633,5.633,0,0,0,4.586-2.168l3.339,3.109a9.283,9.283,0,0,1-3.416,2.639,11.376,11.376,0,0,1-4.874.988,10.407,10.407,0,0,1-5.047-1.219,8.878,8.878,0,0,1-3.54-3.5,10.392,10.392,0,0,1-1.3-5.219,10.822,10.822,0,0,1,.729-4,9.4,9.4,0,0,1,1.986-3.147A8.875,8.875,0,0,1,90.017,14.9a9.8,9.8,0,0,1,3.78-.729,9.587,9.587,0,0,1,4.932,1.257,8.594,8.594,0,0,1,3.32,3.473A10.579,10.579,0,0,1,103.219,23.916ZM93.97,18.7a4.4,4.4,0,0,0-2.734.864,4.47,4.47,0,0,0-1.583,2.495h8.462a4.623,4.623,0,0,0-1.458-2.466A4.017,4.017,0,0,0,93.97,18.7Zm23.355-4.2h5.335L112.316,41.455h-5.258l3.416-8.961-7.676-18h5.373l4.7,11.878h.058Zm29.363,19.477a16.7,16.7,0,0,1-4.414-.576,13.265,13.265,0,0,1-3.9-1.765,13.424,13.424,0,0,1-3.1-2.85,12.575,12.575,0,0,1-2.063-3.963,16.12,16.12,0,0,1-.748-5.008,17.083,17.083,0,0,1,.595-4.557,13.373,13.373,0,0,1,4.673-7.042,12.539,12.539,0,0,1,3.972-2.044,16.352,16.352,0,0,1,4.98-.729,14.382,14.382,0,0,1,3.9.537,14.139,14.139,0,0,1,3.828,1.765,14.3,14.3,0,0,1,3.387,3.051l-4.049,3.454a10.48,10.48,0,0,0-3.147-2.562,8.16,8.16,0,0,0-3.915-.988,9.263,9.263,0,0,0-2,.211,8.014,8.014,0,0,0-1.8.624,8.118,8.118,0,0,0-1.564,1,7.383,7.383,0,0,0-1.286,1.353,8.839,8.839,0,0,0-.969,1.679,9.357,9.357,0,0,0-.614,1.986,11.731,11.731,0,0,0-.211,2.264,9.779,9.779,0,0,0,1.065,4.605,7.833,7.833,0,0,0,2.994,3.176,8.775,8.775,0,0,0,8.319.182,9.668,9.668,0,0,0,3.128-2.571l4.049,3.473a14.373,14.373,0,0,1-4.759,3.847A13.774,13.774,0,0,1,146.687,33.971Zm28.862-15.083a7.388,7.388,0,0,1,4.145,2.5,7.119,7.119,0,0,1,1.458,4.577,8.173,8.173,0,0,1-.566,3.089,6.8,6.8,0,0,1-1.669,2.437,7.548,7.548,0,0,1-2.84,1.612,12.642,12.642,0,0,1-3.982.576H160.543V5.763h10.074q4.452,0,6.783,1.746a5.941,5.941,0,0,1,2.331,5.066,7.466,7.466,0,0,1-.4,2.466,6.172,6.172,0,0,1-1.362,2.188,6.343,6.343,0,0,1-2.418,1.583Zm-9.575-8.232V17.2h3.953A6.02,6.02,0,0,0,172,16.864a3.405,3.405,0,0,0,1.526-1.094,2.906,2.906,0,0,0,.6-1.871,3.07,3.07,0,0,0-.461-1.708,3.057,3.057,0,0,0-1.5-1.123,7.11,7.11,0,0,0-2.61-.413Zm4.452,18.172a7.748,7.748,0,0,0,2.6-.393,3.774,3.774,0,0,0,1.737-1.19,3.061,3.061,0,0,0,.633-1.967,3.173,3.173,0,0,0-1.257-2.658,5.9,5.9,0,0,0-3.656-.969h-4.509v7.177Zm13.856,4.855V5.763h9.23A16.638,16.638,0,0,1,199.49,6.8a13.161,13.161,0,0,1,4.586,2.869,12.583,12.583,0,0,1,2.9,4.433A15.306,15.306,0,0,1,208,19.771a15.6,15.6,0,0,1-.988,5.642,12.119,12.119,0,0,1-7.359,7.254,17.012,17.012,0,0,1-6.025,1.017Zm5.45-4.932h3.55a9.638,9.638,0,0,0,3.684-.691,8.257,8.257,0,0,0,2.85-1.89,8.459,8.459,0,0,0,1.8-2.85,9.694,9.694,0,0,0,.643-3.55,9.766,9.766,0,0,0-1.1-4.663,8.065,8.065,0,0,0-3.08-3.233,8.624,8.624,0,0,0-4.452-1.161h-3.9Z" transform="translate(-0.589 -4.746)" fill="#fff"/>
</svg>
