<svg xmlns="http://www.w3.org/2000/svg" width="405.055" height="37.363" viewBox="0 0 405.055 37.363">
  <path id="Path_1" data-name="Path 1" d="M11.973,39.313A14.019,14.019,0,0,1,6.5,38.2a14.777,14.777,0,0,1-4.844-3.34l3.047-3.75a10.586,10.586,0,0,0,3.447,2.783,8.567,8.567,0,0,0,3.838.967,5.7,5.7,0,0,0,3.516-.928,3.035,3.035,0,0,0,1.211-2.549,3.475,3.475,0,0,0-.127-.967,3.563,3.563,0,0,0-.322-.781,2.6,2.6,0,0,0-.586-.674,6.281,6.281,0,0,0-.771-.566,8.417,8.417,0,0,0-1.035-.518q-.654-.283-1.2-.5t-1.445-.527q-1.055-.371-1.836-.684t-1.729-.781a12.014,12.014,0,0,1-1.621-.947,12.146,12.146,0,0,1-1.357-1.133A5.956,5.956,0,0,1,3.594,21.92a7.6,7.6,0,0,1-.674-1.68,7.509,7.509,0,0,1-.264-2.021A7.158,7.158,0,0,1,3.867,14.2a8.368,8.368,0,0,1,3.271-2.881,9.768,9.768,0,0,1,4.482-1.045,14.915,14.915,0,0,1,9.414,3.5l-2.871,3.789q-3.5-2.91-6.543-2.91a4.407,4.407,0,0,0-2.822.889,2.985,2.985,0,0,0-1.143,2.432,2.729,2.729,0,0,0,1.406,2.383,26.5,26.5,0,0,0,3.906,1.738q.156.059.449.176,1.309.508,1.953.771t1.709.771a9.441,9.441,0,0,1,1.6.918q.537.41,1.24,1.064a4.461,4.461,0,0,1,1.025,1.338,9.278,9.278,0,0,1,.566,1.631,8.241,8.241,0,0,1,.244,2.061,8.144,8.144,0,0,1-.586,3.125,7.322,7.322,0,0,1-1.553,2.4A9.308,9.308,0,0,1,17.373,38a10.616,10.616,0,0,1-2.646,1A12.321,12.321,0,0,1,11.973,39.313ZM37.735,19.488h4.688L31.7,46.91H26.993l3.516-9-7.93-18.418h4.707l5.391,13.164h.039ZM58.908,9.547H63.38V39H59.1V36.383h-.078a7.5,7.5,0,0,1-6.348,2.93,10.3,10.3,0,0,1-3.057-.449A8.414,8.414,0,0,1,47,37.535a9.388,9.388,0,0,1-2.012-2.08,9.248,9.248,0,0,1-1.309-2.773,11.9,11.9,0,0,1-.459-3.35,11.3,11.3,0,0,1,.723-4.062,9.662,9.662,0,0,1,1.973-3.223,9.028,9.028,0,0,1,2.988-2.09,9.191,9.191,0,0,1,3.73-.762,7.642,7.642,0,0,1,6.172,2.637h.1ZM53.38,35.25a5.517,5.517,0,0,0,4.063-1.641,5.76,5.76,0,0,0,1.641-4.258A6.2,6.2,0,0,0,57.492,25,5.3,5.3,0,0,0,53.4,23.258a5.627,5.627,0,0,0-2.2.43,5.273,5.273,0,0,0-2.988,3.135,7.094,7.094,0,0,0-.439,2.529A5.928,5.928,0,0,0,49.338,33.6,5.317,5.317,0,0,0,53.38,35.25ZM79.475,19.2a6.846,6.846,0,0,1,5.264,2.041q1.9,2.041,1.9,6.279v11.5H82.17V28.668A10.425,10.425,0,0,0,81.9,26.09a3.844,3.844,0,0,0-.84-1.67,3.313,3.313,0,0,0-1.318-.889,5.87,5.87,0,0,0-3.877.117,4.38,4.38,0,0,0-1.6,1.133,5.087,5.087,0,0,0-1.025,1.875,8.334,8.334,0,0,0-.361,2.539V39H68.4V19.488h4.473v2.676h.059a8.227,8.227,0,0,1,2.93-2.207A8.733,8.733,0,0,1,79.475,19.2Zm29.688,9.824a11.125,11.125,0,0,1-.117,1.777H94.827a5.425,5.425,0,0,0,1.924,3.262,5.659,5.659,0,0,0,3.643,1.191,5.909,5.909,0,0,0,4.863-2.3l3.125,2.676a9.4,9.4,0,0,1-3.408,2.7,11.025,11.025,0,0,1-4.814,1,10.506,10.506,0,0,1-5.1-1.23,8.957,8.957,0,0,1-3.574-3.545,10.586,10.586,0,0,1-1.309-5.3,11.257,11.257,0,0,1,.723-4.082,9.32,9.32,0,0,1,1.992-3.184,8.972,8.972,0,0,1,3.027-2.041,10.3,10.3,0,0,1,8.77.537,8.5,8.5,0,0,1,3.32,3.5A10.845,10.845,0,0,1,109.163,29.02Zm-9.238-5.762a5.137,5.137,0,0,0-3.2,1.025,5.04,5.04,0,0,0-1.816,2.9h9.766a6.013,6.013,0,0,0-.908-2.061,4.3,4.3,0,0,0-1.6-1.367A4.892,4.892,0,0,0,99.925,23.258ZM125,19.488h4.688L118.969,46.91h-4.707l3.516-9-7.93-18.418h4.707l5.391,13.164h.039Zm31.1,19.766a16.707,16.707,0,0,1-4.453-.586,13.557,13.557,0,0,1-3.936-1.787,13.39,13.39,0,0,1-3.135-2.891,12.635,12.635,0,0,1-2.07-4.023,16.643,16.643,0,0,1-.742-5.068,17.656,17.656,0,0,1,.6-4.639,13.549,13.549,0,0,1,4.717-7.168,12.674,12.674,0,0,1,4.014-2.08,16.321,16.321,0,0,1,5.01-.742,14.279,14.279,0,0,1,11.191,5.449l-3.555,3.008a10.812,10.812,0,0,0-3.428-2.832A8.908,8.908,0,0,0,156.1,14.84a9.32,9.32,0,0,0-4.844,1.25,8.533,8.533,0,0,0-3.281,3.535A11.4,11.4,0,0,0,146.8,24.9a10.7,10.7,0,0,0,1.191,5.107,8.583,8.583,0,0,0,3.311,3.467A9.372,9.372,0,0,0,156.1,34.7a8.884,8.884,0,0,0,4.258-1.045,10.878,10.878,0,0,0,3.379-2.822l3.555,3.027a14.564,14.564,0,0,1-4.795,3.926A13.755,13.755,0,0,1,156.1,39.254ZM186.393,24a7.424,7.424,0,0,1,4.072,2.5,7.2,7.2,0,0,1,1.514,4.707,8.244,8.244,0,0,1-.576,3.135,6.794,6.794,0,0,1-1.709,2.461,7.732,7.732,0,0,1-2.93,1.621,13.423,13.423,0,0,1-4.1.576h-11.23V10.582h9.883q4.453,0,6.846,1.748a6.011,6.011,0,0,1,2.393,5.186,7.341,7.341,0,0,1-1.045,3.838,6.125,6.125,0,0,1-3.115,2.568Zm-10.137-9.082v7.441h4.609a7.032,7.032,0,0,0,1.768-.215,5.177,5.177,0,0,0,1.514-.654,3.162,3.162,0,0,0,1.084-1.182,3.564,3.564,0,0,0,.4-1.719,3.223,3.223,0,0,0-1.279-2.715,6.472,6.472,0,0,0-3.975-.957Zm4.98,19.746a7.644,7.644,0,0,0,4.16-1.025,3.308,3.308,0,0,0,1.543-2.959,3.611,3.611,0,0,0-1.445-3.037,6.751,6.751,0,0,0-4.16-1.1h-5.078v8.125ZM196.55,39V10.582h9.043a17.013,17.013,0,0,1,6.094,1.055,13.2,13.2,0,0,1,4.668,2.93,12.994,12.994,0,0,1,2.939,4.512,15.5,15.5,0,0,1,1.045,5.762,15.743,15.743,0,0,1-1.016,5.742,12.867,12.867,0,0,1-2.871,4.482,12.679,12.679,0,0,1-4.619,2.9A17.337,17.337,0,0,1,205.71,39Zm4.824-4.336h4.043a10.993,10.993,0,0,0,4.082-.742,8.946,8.946,0,0,0,3.154-2.051,9.241,9.241,0,0,0,1.992-3.125,10.6,10.6,0,0,0,.713-3.906,10.615,10.615,0,0,0-1.221-5.117,8.807,8.807,0,0,0-3.437-3.535,9.9,9.9,0,0,0-5.01-1.27h-4.316ZM235.106,39V10.582h17.871v4.336H239.93V22.75h10.547v4.336H239.93v7.578h13.887V39Zm34.669-19.512h4.688L263.74,46.91h-4.707l3.516-9-7.93-18.418h4.707l5.391,13.164h.039ZM294.19,29.02a11.125,11.125,0,0,1-.117,1.777H279.854a5.425,5.425,0,0,0,1.924,3.262,5.659,5.659,0,0,0,3.643,1.191,5.909,5.909,0,0,0,4.863-2.3l3.125,2.676a9.4,9.4,0,0,1-3.408,2.7,11.025,11.025,0,0,1-4.814,1,10.506,10.506,0,0,1-5.1-1.23,8.957,8.957,0,0,1-3.574-3.545,10.586,10.586,0,0,1-1.309-5.3,11.256,11.256,0,0,1,.723-4.082,9.32,9.32,0,0,1,1.992-3.184,8.971,8.971,0,0,1,3.027-2.041,10.3,10.3,0,0,1,8.77.537,8.5,8.5,0,0,1,3.32,3.5A10.845,10.845,0,0,1,294.19,29.02Zm-9.238-5.762a5.137,5.137,0,0,0-3.2,1.025,5.04,5.04,0,0,0-1.816,2.9H289.7a6.013,6.013,0,0,0-.908-2.061,4.3,4.3,0,0,0-1.6-1.367A4.892,4.892,0,0,0,284.952,23.258Zm36.584,16a16.707,16.707,0,0,1-4.453-.586,13.557,13.557,0,0,1-3.936-1.787,13.389,13.389,0,0,1-3.135-2.891,12.635,12.635,0,0,1-2.07-4.023A16.644,16.644,0,0,1,307.2,24.9a17.656,17.656,0,0,1,.6-4.639,13.549,13.549,0,0,1,4.717-7.168,12.674,12.674,0,0,1,4.014-2.08,16.321,16.321,0,0,1,5.01-.742,14.279,14.279,0,0,1,11.191,5.449l-3.555,3.008a10.813,10.813,0,0,0-3.428-2.832,8.908,8.908,0,0,0-4.209-1.055,9.32,9.32,0,0,0-4.844,1.25,8.533,8.533,0,0,0-3.281,3.535,11.4,11.4,0,0,0-1.172,5.273,10.694,10.694,0,0,0,1.191,5.107,8.583,8.583,0,0,0,3.311,3.467,9.372,9.372,0,0,0,4.795,1.23,8.884,8.884,0,0,0,4.258-1.045,10.878,10.878,0,0,0,3.379-2.822l3.555,3.027a14.564,14.564,0,0,1-4.795,3.926A13.755,13.755,0,0,1,321.535,39.254ZM336.595,39V9.547h4.473V39Zm12.345-22.422a2.939,2.939,0,0,1-2.148-.869,2.947,2.947,0,0,1,0-4.2,2.939,2.939,0,0,1,2.148-.869,2.909,2.909,0,0,1,2.119.879,2.9,2.9,0,0,1,.479,3.574,3.037,3.037,0,0,1-1.1,1.084A2.938,2.938,0,0,1,348.939,16.578ZM346.673,39V19.488h4.473V39Zm20.86-19.8a6.846,6.846,0,0,1,5.264,2.041q1.9,2.041,1.9,6.279v11.5h-4.473V28.668a10.425,10.425,0,0,0-.273-2.578,3.844,3.844,0,0,0-.84-1.67,3.313,3.313,0,0,0-1.318-.889,5.87,5.87,0,0,0-3.877.117,4.38,4.38,0,0,0-1.6,1.133,5.086,5.086,0,0,0-1.025,1.875,8.334,8.334,0,0,0-.361,2.539V39h-4.473V19.488h4.473v2.676h.059a8.227,8.227,0,0,1,2.93-2.207A8.733,8.733,0,0,1,367.534,19.2Zm14.415-2.617a2.939,2.939,0,0,1-2.148-.869,2.947,2.947,0,0,1,0-4.2,2.939,2.939,0,0,1,2.148-.869,2.909,2.909,0,0,1,2.119.879,2.9,2.9,0,0,1,.479,3.574,3.037,3.037,0,0,1-1.1,1.084A2.938,2.938,0,0,1,381.948,16.578ZM379.683,39V19.488h4.473V39Zm18.595.313a10.414,10.414,0,0,1-5.117-1.25,8.929,8.929,0,0,1-3.545-3.545,10.587,10.587,0,0,1-1.279-5.244,10.523,10.523,0,0,1,1.289-5.244,9.074,9.074,0,0,1,3.584-3.564,10.612,10.612,0,0,1,5.225-1.27,11.577,11.577,0,0,1,4.57.938,9.239,9.239,0,0,1,3.633,2.7l-3.047,2.637a6.222,6.222,0,0,0-2.129-1.621,6.5,6.5,0,0,0-2.793-.586,5.968,5.968,0,0,0-3.027.752,5.2,5.2,0,0,0-2.031,2.109,7.1,7.1,0,0,0,.01,6.26A5.228,5.228,0,0,0,395.67,34.5a5.982,5.982,0,0,0,3.018.752,7.2,7.2,0,0,0,1.24-.107,6.509,6.509,0,0,0,1.143-.3,6.954,6.954,0,0,0,1-.459,6.375,6.375,0,0,0,.859-.576,5.711,5.711,0,0,0,.7-.664l3.086,2.734a9.941,9.941,0,0,1-3.545,2.48A12.127,12.127,0,0,1,398.277,39.313Z" transform="translate(-1.66 -9.547)" fill="#fff"/>
</svg>
