<svg xmlns="http://www.w3.org/2000/svg" width="95.894" height="16.813" viewBox="0 0 95.894 16.813">
  <g id="Group_12" data-name="Group 12" transform="translate(-43.589 -42.746)">
    <path id="Path_22" data-name="Path 22" d="M5.247,18.149a6.362,6.362,0,0,1-2.474-.5A6.577,6.577,0,0,1,.589,16.137l1.521-1.872a4.961,4.961,0,0,0,.76.712,4.725,4.725,0,0,0,.817.5,4.168,4.168,0,0,0,.813.29,3.4,3.4,0,0,0,.791.1,2.615,2.615,0,0,0,1.015-.176,1.356,1.356,0,0,0,.62-.475,1.225,1.225,0,0,0,.2-.7,1.34,1.34,0,0,0-.088-.5,1.251,1.251,0,0,0-.242-.387,1.776,1.776,0,0,0-.448-.33A5.557,5.557,0,0,0,5.739,13q-.316-.127-.835-.3-.466-.167-.826-.308T3.3,12.037a6.164,6.164,0,0,1-.729-.431,4.6,4.6,0,0,1-.611-.519,2.93,2.93,0,0,1-.492-.642,3.4,3.4,0,0,1-.308-.782,3.645,3.645,0,0,1-.119-.945,3.307,3.307,0,0,1,.545-1.846A3.785,3.785,0,0,1,3.067,5.559a4.667,4.667,0,0,1,2.074-.5A6.52,6.52,0,0,1,9.448,6.671L7.989,8.578A4.609,4.609,0,0,0,5.2,7.321a1.705,1.705,0,0,0-1.1.343,1.165,1.165,0,0,0-.435.94,1.029,1.029,0,0,0,.088.431,1.219,1.219,0,0,0,.237.347,1.914,1.914,0,0,0,.444.316q.294.163.589.29t.8.321q.088.035.255.1.589.229.875.347t.76.347a4.395,4.395,0,0,1,.708.4q.233.176.545.466a1.986,1.986,0,0,1,.457.6,4.012,4.012,0,0,1,.25.725,3.747,3.747,0,0,1,.105.918A3.908,3.908,0,0,1,9.5,15.693a3.279,3.279,0,0,1-.721,1.116,4.338,4.338,0,0,1-1.042.756,4.813,4.813,0,0,1-1.217.448A5.958,5.958,0,0,1,5.247,18.149ZM16.269,9.211h2.443L13.975,21.56H11.567l1.564-4.1L9.616,9.211h2.461l2.153,5.44h.026Zm9.185-4.465H27.81V18H25.569V16.937h-.053a3.232,3.232,0,0,1-2.689,1.213,4.687,4.687,0,0,1-1-.105,3.771,3.771,0,0,1-.9-.316,4.4,4.4,0,0,1-.778-.5,3.524,3.524,0,0,1-.642-.677,4.509,4.509,0,0,1-.479-.835,4.674,4.674,0,0,1-.3-.98,5.657,5.657,0,0,1-.105-1.1,5.238,5.238,0,0,1,.316-1.837,4.351,4.351,0,0,1,.866-1.45,4.012,4.012,0,0,1,2.958-1.283A3.341,3.341,0,0,1,25.411,10.2h.044Zm-2.2,11.294a2.357,2.357,0,0,0,1.169-.294,2.164,2.164,0,0,0,.839-.848,2.515,2.515,0,0,0,.312-1.257,2.48,2.48,0,0,0-.655-1.758,2.166,2.166,0,0,0-1.657-.7,2.138,2.138,0,0,0-1.613.677,2.477,2.477,0,0,0-.646,1.784,2.425,2.425,0,0,0,.628,1.731A2.126,2.126,0,0,0,23.257,16.04ZM34.675,9.062a3.773,3.773,0,0,1,1.3.207,2.629,2.629,0,0,1,1.666,1.8,5.788,5.788,0,0,1,.229,1.723v5.221H35.51V13.377a2.69,2.69,0,0,0-.413-1.705,1.571,1.571,0,0,0-1.274-.492,1.827,1.827,0,0,0-1.455.624,2.63,2.63,0,0,0-.541,1.775V18H29.472V9.211h2.355v1.134h.026a3.6,3.6,0,0,1,1.27-.954A3.744,3.744,0,0,1,34.675,9.062ZM47.6,13.526a3.736,3.736,0,0,1-.062.844H41.373a2.211,2.211,0,0,0,.8,1.23,2.357,2.357,0,0,0,1.437.457,2.58,2.58,0,0,0,2.1-.993l1.529,1.424A4.252,4.252,0,0,1,45.68,17.7a5.211,5.211,0,0,1-2.232.453,4.766,4.766,0,0,1-2.312-.558,4.066,4.066,0,0,1-1.622-1.6,4.76,4.76,0,0,1-.593-2.391,4.957,4.957,0,0,1,.334-1.833,4.307,4.307,0,0,1,.91-1.441A4.065,4.065,0,0,1,41.549,9.4a4.49,4.49,0,0,1,1.731-.334,4.391,4.391,0,0,1,2.259.576,3.936,3.936,0,0,1,1.521,1.591A4.846,4.846,0,0,1,47.6,13.526Zm-4.236-2.391a2.016,2.016,0,0,0-1.252.4,2.047,2.047,0,0,0-.725,1.143h3.876a2.117,2.117,0,0,0-.668-1.129A1.84,1.84,0,0,0,43.359,11.136Zm10.7-1.925H56.5L51.762,21.56H49.354l1.564-4.1L47.4,9.211h2.461l2.153,5.44h.026Z" transform="translate(43 38)" fill="#015bea"/>
    <path id="Path_21" data-name="Path 21" d="M7.4,18.132a7.649,7.649,0,0,1-2.021-.264,6.076,6.076,0,0,1-1.784-.809,6.148,6.148,0,0,1-1.419-1.305,5.76,5.76,0,0,1-.945-1.815,7.383,7.383,0,0,1-.343-2.294A7.824,7.824,0,0,1,1.16,9.558,6.125,6.125,0,0,1,3.3,6.333,5.743,5.743,0,0,1,5.12,5.4,7.49,7.49,0,0,1,7.4,5.063a6.587,6.587,0,0,1,1.784.246,6.476,6.476,0,0,1,1.753.809,6.552,6.552,0,0,1,1.551,1.4L10.635,9.1A4.8,4.8,0,0,0,9.193,7.923,3.738,3.738,0,0,0,7.4,7.471a4.243,4.243,0,0,0-.914.1,3.671,3.671,0,0,0-.826.286,3.718,3.718,0,0,0-.716.457,3.381,3.381,0,0,0-.589.62,4.048,4.048,0,0,0-.444.769,4.286,4.286,0,0,0-.281.91,5.373,5.373,0,0,0-.1,1.037,4.479,4.479,0,0,0,.488,2.109,3.587,3.587,0,0,0,1.371,1.455,3.867,3.867,0,0,0,2.008.523,3.845,3.845,0,0,0,1.8-.439,4.428,4.428,0,0,0,1.433-1.178l1.854,1.591a6.583,6.583,0,0,1-2.18,1.762A6.309,6.309,0,0,1,7.4,18.132ZM20.62,11.224a3.384,3.384,0,0,1,1.9,1.147,3.261,3.261,0,0,1,.668,2.1,3.743,3.743,0,0,1-.259,1.415A3.115,3.115,0,0,1,22.162,17a3.457,3.457,0,0,1-1.3.738A5.79,5.79,0,0,1,19.038,18H13.747V5.212h4.614a5.125,5.125,0,0,1,3.107.8,2.721,2.721,0,0,1,1.068,2.32,3.42,3.42,0,0,1-.185,1.129,2.827,2.827,0,0,1-.624,1,2.905,2.905,0,0,1-1.107.725ZM16.234,7.453v3h1.811a2.757,2.757,0,0,0,.949-.154,1.56,1.56,0,0,0,.7-.5,1.331,1.331,0,0,0,.277-.857,1.279,1.279,0,0,0-.9-1.3,3.257,3.257,0,0,0-1.2-.189Zm2.039,8.323a3.549,3.549,0,0,0,1.191-.18,1.728,1.728,0,0,0,.8-.545,1.4,1.4,0,0,0,.29-.9,1.453,1.453,0,0,0-.576-1.217,2.7,2.7,0,0,0-1.674-.444H16.234v3.287ZM24.62,18V5.212h4.228a7.62,7.62,0,0,1,2.738.475A6.028,6.028,0,0,1,33.685,7a5.763,5.763,0,0,1,1.327,2.03,7.01,7.01,0,0,1,.47,2.6,7.146,7.146,0,0,1-.453,2.584,5.551,5.551,0,0,1-3.371,3.322A7.792,7.792,0,0,1,28.9,18Zm2.5-2.259h1.626a4.415,4.415,0,0,0,1.688-.316,3.782,3.782,0,0,0,1.305-.866,3.874,3.874,0,0,0,.826-1.305,4.71,4.71,0,0,0-.211-3.762,3.694,3.694,0,0,0-1.411-1.481A3.95,3.95,0,0,0,28.9,7.479H27.116Z" transform="translate(104 38)" fill="#01c5f9"/>
  </g>
</svg>
