<svg xmlns="http://www.w3.org/2000/svg" width="28.939" height="29" viewBox="0 0 28.939 29">
  <g id="phone" transform="translate(-0.539)">
    <g id="Group_75" data-name="Group 75" transform="translate(0.539 0)">
      <path id="Path_113" data-name="Path 113" d="M28.719,21.283l-4.047-4.047a2.692,2.692,0,0,0-4.481,1.012,2.754,2.754,0,0,1-3.18,1.734C14.121,19.26,10.219,15.5,9.5,12.466a2.62,2.62,0,0,1,1.734-3.18,2.692,2.692,0,0,0,1.012-4.481L8.2.759a2.887,2.887,0,0,0-3.9,0L1.546,3.505C-1.2,6.4,1.836,14.056,8.629,20.849s14.454,9.973,17.344,7.082l2.746-2.746A2.887,2.887,0,0,0,28.719,21.283Z" transform="translate(-0.539 0)" fill="#fff"/>
    </g>
  </g>
</svg>
