<svg id="Group_20" data-name="Group 20" xmlns="http://www.w3.org/2000/svg" width="153" height="131" viewBox="0 0 153 131">
  <rect id="Rectangle_40" data-name="Rectangle 40" width="153" height="131" fill="#fff"/>
  <g id="quote" transform="translate(38.475 35.509)">
    <g id="Group_16" data-name="Group 16">
      <path id="Path_24" data-name="Path 24" d="M12.232,40.736a19.078,19.078,0,0,0,5.272.77,16.566,16.566,0,0,0,6.61-1.354c-1.662,6.083-5.653,16.579-13.6,17.761a1.889,1.889,0,0,0-1.541,1.359L7.231,65.487a1.889,1.889,0,0,0,1.562,2.379,13.2,13.2,0,0,0,1.778.121c9.544,0,19-9.962,22.985-24.225,2.341-8.368,3.028-20.949-2.739-28.868C27.588,10.462,22.88,8.1,16.821,7.86l-.074,0a16.751,16.751,0,0,0-4.516,32.878Z" transform="translate(36.724 -7.857)" fill="#01c5f9"/>
      <path id="Path_25" data-name="Path 25" d="M50.787,32.827a16.79,16.79,0,0,0,10.071,7.911,19.076,19.076,0,0,0,5.271.77,16.57,16.57,0,0,0,6.611-1.354c-1.662,6.083-5.653,16.579-13.605,17.761a1.89,1.89,0,0,0-1.541,1.359l-1.738,6.216a1.889,1.889,0,0,0,1.562,2.379,13.183,13.183,0,0,0,1.778.121c9.544,0,19-9.962,22.985-24.225,2.341-8.368,3.027-20.949-2.741-28.87C76.214,10.462,71.5,8.1,65.447,7.86l-.075,0A16.751,16.751,0,0,0,50.787,32.827Z" transform="translate(-48.626 -7.858)" fill="#9beaff"/>
    </g>
  </g>
</svg>
