<svg xmlns="http://www.w3.org/2000/svg" width="153" height="131" viewBox="0 0 153 131">
  <g id="Group_17" data-name="Group 17" transform="translate(-253 -2112)">
    <rect id="Rectangle_40" data-name="Rectangle 40" width="153" height="131" transform="translate(253 2112)" fill="#fff"/>
    <g id="quote" transform="translate(295.525 2147.362)">
      <g id="Group_16" data-name="Group 16">
        <path id="Path_24" data-name="Path 24" d="M23.044,35.108a19.078,19.078,0,0,0-5.272-.77,16.566,16.566,0,0,0-6.61,1.354c1.662-6.083,5.653-16.579,13.6-17.761a1.889,1.889,0,0,0,1.541-1.359l1.738-6.216a1.889,1.889,0,0,0-1.562-2.379,13.2,13.2,0,0,0-1.778-.121c-9.544,0-19,9.962-22.985,24.225C-.62,40.452-1.307,53.033,4.461,60.951c3.227,4.431,7.935,6.8,13.994,7.034l.074,0a16.751,16.751,0,0,0,4.516-32.878Z" transform="translate(0 -7.858)" fill="#01c5f9"/>
        <path id="Path_25" data-name="Path 25" d="M81.74,43.019A16.79,16.79,0,0,0,71.67,35.108a19.076,19.076,0,0,0-5.271-.77,16.57,16.57,0,0,0-6.611,1.354c1.662-6.083,5.653-16.579,13.605-17.761a1.89,1.89,0,0,0,1.541-1.359l1.738-6.216A1.889,1.889,0,0,0,75.11,7.979a13.183,13.183,0,0,0-1.778-.121c-9.544,0-19,9.962-22.985,24.225-2.341,8.368-3.027,20.949,2.741,28.87,3.226,4.43,7.935,6.8,13.993,7.033l.075,0A16.751,16.751,0,0,0,81.74,43.019Z" transform="translate(-11.901 -7.858)" fill="#9beaff"/>
      </g>
    </g>
  </g>
</svg>
